<?xml version="1.0" encoding="utf-8"?>
<?xml-stylesheet type="text/xsl" href="rss1.xsl"?>
<rss version="2.0" xmlns:atom="http://www.w3.org/2005/Atom" xmlns:content="http://purl.org/rss/1.0/modules/content/" xmlns:dc="http://purl.org/dc/elements/1.1/" xmlns:media="http://search.yahoo.com/mrss/">
<channel>
 <title>Getty</title>
 <link>http://www.gettyimg.com/</link>
 <atom:link href="http://www.gettyimg.com/" rel="self" type="application/rss+xml" />

 
                <item>
                <title><![CDATA[【Singles (lossy)】Dolby Atmos - vantablack - Garden 87 | 2024 | E-AC3-JOC (Dolby Atmos) | 16-Bit/48kHz | 5.1 | 768 kb/s]]></title>
                <link><![CDATA[https://sharemania.us/threads/vantablack-garden-87-2024-e-ac3-joc-dolby-atmos-16-bit-48khz-5-1-768-kb-s.248434/]]></link>
                <description><![CDATA[<article>
<blockquote class="messageText SelectQuoteContainer ugc baseHtml">
<div style="text-align: center"><b><span style="font-size: 26px"><span style="color: rgb(255, 0, 255)"><img src="https://i.imgur.com/Ewh8mbJ.jpeg" class="bbCodeImage LbImage" alt="[​IMG]" data-url="https://i.imgur.com/Ewh8mbJ.jpeg" style=""> <br>
vantablack</span> - <span style="color: #80ff00">Garden 87</span></span><br>
<span style="font-size: 22px">*2024*</span><br>
Release date: </b>2024-03-07<br>
<b>Genre: </b>Psytrance, Tribal, Electronic, Rave, Mantra, Cinematic, Goa, Shamanic, Trip, Ethnic, Africa, Native America, Forest<br>
<b>Format: </b>.mp4 | <i>E-AC3 JOC (Dolby Atmos) - 768 kb/s | 5.1</i><br>
<b>Source:</b> <i><span style="color: rgb(0, 0, 255)">Own original encode of master ADM from DME (Directly)</span></i><br>
<b>Duration total</b>: <b>[06:42]</b><br>
<div class="ToggleTriggerAnchor bbCodeSpoilerContainer">
<button type="button" class="button bbCodeSpoilerButton ToggleTrigger Tooltip JsOnly" data-target="> .SpoilerTarget"><span>Spoiler: <span class="SpoilerTitle">MediaInfo</span></span></button>
<div class="SpoilerTarget bbCodeSpoilerText"><b>Format : MPEG-4<br>
Format profile : Base Media / Version 2<br>
Codec ID : mp42 (mp42/dby1)<br>
File size : 36.9 MiB<br>
Duration : 6 min 42 s<br>
Overall bit rate mode : Constant<br>
Overall bit rate : 769 kb/s<br>
Encoded date : UTC 2024-03-07 10:22:17<br>
Tagged date : UTC 2024-03-07 10:22:17<br>
<br>
Audio<br>
ID : 1<br>
Format : E-AC-3 JOC<br>
Format/Info : Enhanced AC-3 with Joint Object Coding<br>
Commercial name : Dolby Digital Plus with Dolby Atmos<br>
Codec ID : ec-3<br>
Duration : 6 min 42 s<br>
Bit rate mode : Constant<br>
Bit rate : 768 kb/s<br>
Channel(s) : 6 channels<br>
Channel layout : L R C LFE Ls Rs<br>
Sampling rate : 48.0 kHz<br>
Frame rate : 31.250 FPS (1536 SPF)<br>
Compression mode : Lossy<br>
Stream size : 36.8 MiB (100%)<br>
Service kind : Complete Main<br>
Default : Yes<br>
Alternate group : 2<br>
Encoded date : UTC 2024-03-07 10:22:17<br>
Tagged date : UTC 2024-03-07 10:22:17<br>
Complexity index : 16<br>
Number of dynamic objects : 15<br>
Bed channel count : 1 channel<br>
Bed channel configuration : LFE</b></div>
</div></div><div style="text-align: center"><i><i>Link:</i></i><br>
<b><b>
<div class="bbCodeBlock bbCodeVfcHH HiddenContent">
<div class="attribution type">Hidden Content:</div>
<blockquote>You must reply before you can see the hidden data contained here.</blockquote>
</div></b></b><br>
<i><i>.rar password:<br>
<div class="bbCodeBlock bbCodeVfcHH HiddenContent">
<div class="attribution type">Hidden Content:</div>
<blockquote>You must reply before you can see the hidden data contained here.</blockquote>
</div><b><span style="font-size: 26px"><i><span style="color: rgb(255, 0, 0)"><span style="text-decoration: underline">If you want another sound formats of this single - just send PM!</span></span></i></span></b><br>
<span style="color: rgb(166, 77, 255)"><span style="font-size: 26px"><i>Also leave feedback if you want.</i></span></span><br>
<i><span style="font-size: 26px"><i><span style="color: rgb(255, 0, 128)">Next uploads soon...</span></i></span></i></i></i>​</div>
<div class="messageTextEndMarker">&nbsp;</div>
</blockquote>
</article>]]></description>
                <author><![CDATA[vantablack]]></author>
                </item>

                
                <item>
                <title><![CDATA[【HD Live Performances】FEED - Disclosure - Live @ Glastonbury 2024 FEED HDTV H264 1080i 422 MP2-ilya2129]]></title>
                <link><![CDATA[https://sharemania.us/threads/disclosure-live-glastonbury-2024-feed-hdtv-h264-1080i-422-mp2-ilya2129.248436/]]></link>
                <description><![CDATA[<article>
<blockquote class="messageText SelectQuoteContainer ugc baseHtml">
<div style="text-align: center"><img src="https://i122.fastpic.org/big/2023/0623/b4/b37c6294354538a70aac338bdf3af5b4.png?r=1" class="bbCodeImage LbImage" alt="[​IMG]" data-url="https://i122.fastpic.org/big/2023/0623/b4/b37c6294354538a70aac338bdf3af5b4.png?r=1" style=""><br>
<br>
<a href="https://fastpic.org/view/123/2024/0702/_817445a7342bc37c970a3a88db35daa5.png.html" target="_blank" class="externalLink" rel="nofollow"><img src="https://i123.fastpic.org/thumb/2024/0702/a5/_817445a7342bc37c970a3a88db35daa5.jpeg" class="bbCodeImage LbImage" alt="[​IMG]" data-url="https://i123.fastpic.org/thumb/2024/0702/a5/_817445a7342bc37c970a3a88db35daa5.jpeg"></a> <a href="https://fastpic.org/view/123/2024/0702/_b397631eea903af42b10a6b01bc62e0e.png.html" target="_blank" class="externalLink" rel="nofollow"><img src="https://i123.fastpic.org/thumb/2024/0702/0e/_b397631eea903af42b10a6b01bc62e0e.jpeg" class="bbCodeImage LbImage" alt="[​IMG]" data-url="https://i123.fastpic.org/thumb/2024/0702/0e/_b397631eea903af42b10a6b01bc62e0e.jpeg"></a> <a href="https://fastpic.org/view/123/2024/0702/_8427e49b637a792c08a3c6843e484b48.png.html" target="_blank" class="externalLink" rel="nofollow"><img src="https://i123.fastpic.org/thumb/2024/0702/48/_8427e49b637a792c08a3c6843e484b48.jpeg" class="bbCodeImage LbImage" alt="[​IMG]" data-url="https://i123.fastpic.org/thumb/2024/0702/48/_8427e49b637a792c08a3c6843e484b48.jpeg"></a> <a href="https://fastpic.org/view/123/2024/0702/_bb68fcba289bc1fa888a8ba181419b8f.png.html" target="_blank" class="externalLink" rel="nofollow"><img src="https://i123.fastpic.org/thumb/2024/0702/8f/_bb68fcba289bc1fa888a8ba181419b8f.jpeg" class="bbCodeImage LbImage" alt="[​IMG]" data-url="https://i123.fastpic.org/thumb/2024/0702/8f/_bb68fcba289bc1fa888a8ba181419b8f.jpeg"></a> <a href="https://fastpic.org/view/123/2024/0702/_7e17be6472e2a34842b0da19caf98c31.png.html" target="_blank" class="externalLink" rel="nofollow"><img src="https://i123.fastpic.org/thumb/2024/0702/31/_7e17be6472e2a34842b0da19caf98c31.jpeg" class="bbCodeImage LbImage" alt="[​IMG]" data-url="https://i123.fastpic.org/thumb/2024/0702/31/_7e17be6472e2a34842b0da19caf98c31.jpeg"></a> <a href="https://fastpic.org/view/123/2024/0702/_5211a06f27d19845bd9090396b67ec99.png.html" target="_blank" class="externalLink" rel="nofollow"><img src="https://i123.fastpic.org/thumb/2024/0702/99/_5211a06f27d19845bd9090396b67ec99.jpeg" class="bbCodeImage LbImage" alt="[​IMG]" data-url="https://i123.fastpic.org/thumb/2024/0702/99/_5211a06f27d19845bd9090396b67ec99.jpeg"></a><br>
<br>
<i><br>
F for You<br>
When a Fire Starts to Burn<br>
Holding On<br>
Waterfall<br>
Douha (Mali Mali)<br>
In My Arms<br>
White Noise<br>
Help Me Lose My Mind<br>
Simply Won't Do<br>
Never Enough<br>
She's Gone, Dance On<br>
Insomnia<br>
Higher Than Ever Before<br>
Latch<br>
Tondo<br>
You &amp; Me<br>
</i><br>
​</div><br>
<div class="bbCodeBlock bbCodeCode">
<div class="type">Code:</div>
<pre>General
ID                                       : 1 (0x1)
Complete name                            : C:\Recordings\Glasto 2024\Disclosure - Live @ Glastonbury 2024 FEED HDTV H264 1080i 422 MP2-ilya2129.ts
Format                                   : MPEG-TS
File size                                : 16.2 GiB
Duration                                 : 1 h 21 min
Overall bit rate mode                    : Variable
Overall bit rate                         : 28.4 Mb/s
Frame rate                               : 25.000 FPS

Video
ID                                       : 501 (0x1F5)
Menu ID                                  : 1 (0x1)
Format                                   : AVC
Format/Info                              : Advanced Video Codec
Format profile                           : High 4:2:2@L4.1
Format settings                          : CABAC / 4 Ref Frames
Format settings, CABAC                   : Yes
Format settings, Reference frames        : 4 frames
Format settings, GOP                     : M=3, N=48
Codec ID                                 : 27
Duration                                 : 1 h 21 min
Bit rate                                 : 26.6 Mb/s
Width                                    : 1 920 pixels
Height                                   : 1 080 pixels
Display aspect ratio                     : 16:9
Active Format Description                : Full frame 16:9 image
Frame rate                               : 25.000 FPS
Color space                              : YUV
Chroma subsampling                       : 4:2:2
Bit depth                                : 10 bits
Scan type                                : Interlaced
Scan type, store method                  : Separated fields
Scan order                               : Top Field First
Bits/(Pixel*Frame)                       : 0.513
Stream size                              : 15.2 GiB (94%)
Color range                              : Limited
Color primaries                          : BT.709
Transfer characteristics                 : BT.709
Matrix coefficients                      : BT.709

Audio
ID                                       : 4112 (0x1010)
Menu ID                                  : 1 (0x1)
Format                                   : MPEG Audio
Format version                           : Version 1
Format profile                           : Layer 2
Codec ID                                 : 4
Duration                                 : 1 h 21 min
Bit rate mode                            : Constant
Bit rate                                 : 384 kb/s
Channel(s)                               : 2 channels
Sampling rate                            : 48.0 kHz
Frame rate                               : 41.667 FPS (1152 SPF)
Compression mode                         : Lossy
Delay relative to video                  : 10 ms
Stream size                              : 225 MiB (1%)
Language                                 : English


</pre>
</div>
<div class="bbCodeBlock bbCodeVfcHH HiddenContent">
<div class="attribution type">Hidden Content:</div>
<blockquote>You must reply before you can see the hidden data contained here.</blockquote>
</div>
<div class="messageTextEndMarker">&nbsp;</div>
</blockquote>
</article>]]></description>
                <author><![CDATA[ilya2129]]></author>
                </item>

                
                <item>
                <title><![CDATA[【HD Live Performances】WEB-RiP - PJ Harvey - Glastonbury 2024 (BBC 2024-06-28) WEB-RiP 1080p-50fps-TPF HDMania]]></title>
                <link><![CDATA[https://sharemania.us/threads/pj-harvey-glastonbury-2024-bbc-2024-06-28-web-rip-1080p-50fps-tpf-hdmania.248435/]]></link>
                <description><![CDATA[<article>
<blockquote class="messageText SelectQuoteContainer ugc baseHtml">
<div style="text-align: center"><img src="https://i.postimg.cc/7hKgds76/Glastonbury-2024-Banner.png" class="bbCodeImage LbImage" alt="[​IMG]" data-url="https://i.postimg.cc/7hKgds76/Glastonbury-2024-Banner.png" style=""><br>
<b><span style="font-size: 18px">PJ Harvey - Glastonbury 2024 WEB-RiP 1080p-50fps-TPF HDMania</span></b><br>
<i><span style="font-size: 12px">Step into Polly Harvey's captivating world of dark beauty and haunting melodies.</span></i><br>
<img src="https://i.postimg.cc/285dhYRB/Glastonbury-2024-Half-Banner.png" class="bbCodeImage LbImage" alt="[​IMG]" data-url="https://i.postimg.cc/285dhYRB/Glastonbury-2024-Half-Banner.png" style=""><br>
<img src="https://i.postimg.cc/qBn90Dvq/PJ-Harvey-Glastonbury-2024-BBC-2024-06-28-WEB-Ri-P-1080p-50fps-TPF-HDMania-0-1920x1080.jpg" class="bbCodeImage LbImage" alt="[​IMG]" data-url="https://i.postimg.cc/qBn90Dvq/PJ-Harvey-Glastonbury-2024-BBC-2024-06-28-WEB-Ri-P-1080p-50fps-TPF-HDMania-0-1920x1080.jpg" style=""><br>
<img src="https://i.postimg.cc/269zbnNJ/Glastonbury-2024-1080-TPF-HDMania-00.png" class="bbCodeImage LbImage" alt="[​IMG]" data-url="https://i.postimg.cc/269zbnNJ/Glastonbury-2024-1080-TPF-HDMania-00.png" style=""><br>
<img src="https://i.postimg.cc/65MzNCnT/PJ-Harvey-Glastonbury-2024-BBC-2024-06-28-WEB-Ri-P-1080p-50fps-TPF-HDMania.jpg" class="bbCodeImage LbImage" alt="[​IMG]" data-url="https://i.postimg.cc/65MzNCnT/PJ-Harvey-Glastonbury-2024-BBC-2024-06-28-WEB-Ri-P-1080p-50fps-TPF-HDMania.jpg" style="">
<div class="ToggleTriggerAnchor bbCodeSpoilerContainer">
<button type="button" class="button bbCodeSpoilerButton ToggleTrigger Tooltip JsOnly" data-target="> .SpoilerTarget"><span>Spoiler: <span class="SpoilerTitle">MediaInfo.</span></span></button>
<div class="SpoilerTarget bbCodeSpoilerText">Size : 2.819 GB<br>
Duration : 00:47:52.15<br>
Mux type : MP4<br>
<b>Video:</b><br>
Encoding : H.264<br>
VideoStreamID : x201<br>
Frame rate : 50.00 fps<br>
Frame rate flag : Constant<br>
Encoding size : 1920 x 1080<br>
Aspect ratio : 16:9<br>
Header bit rate : 12.000 Mbps<br>
VBV buffer : 2928 KBytes<br>
Profile : High/4.2<br>
Progressive : Progressive<br>
Chroma : 4:2:0<br>
Entropy mode : CABAC<br>
Bit rate : 7.537 Mbps<br>
<b>Audio Stream: 1 (Primary)</b><br>
Codec : AAC<br>
Format : RAW<br>
Channels : 2.0<br>
Language : eng<br>
PID : x202<br>
PES Stream Id : xC0<br>
Sampling rate : 48000<br>
Sample size : 16 bits</div>
</div>
<div class="bbCodeBlock bbCodeVfcHH HiddenContent">
<div class="attribution type">Hidden Content:</div>
<blockquote>You must either reply or click 'Like' to see the hidden information contained here.</blockquote>
</div><b><span style="color: rgb(255, 0, 0)">Don't forget to <i>Like</i>, if you download...</span></b><br>
<br>
<span style="font-size: 15px">If you like, <i>like</i>... <img src="styles/default/xenforo/smilies/exciting-48.png" class="mceSmilie" alt=":D" title="Big Grin    :D">...I always <i>like</i>, back (if you leave a <i>reply</i>)... <img src="styles/default/xenforo/smilies/haha-48.png" class="mceSmilie" alt=":lol:" title="LOL    :lol:"><br>
<br>
Credit to the original capper/ripper: <b><i>Me</i></b></span>​</div>
<div class="messageTextEndMarker">&nbsp;</div>
</blockquote>
</article>]]></description>
                <author><![CDATA[ThePixelFarm]]></author>
                </item>

                </channel></rss>